<?xml version="1.0" standalone="no"?>
<!DOCTYPE svg PUBLIC "-//W3C//DTD SVG 20010904//EN"
 "http://www.w3.org/TR/2001/REC-SVG-20010904/DTD/svg10.dtd">
<svg version="1.0" xmlns="http://www.w3.org/2000/svg"
 width="1024.000000pt" height="1024.000000pt" viewBox="0 0 1024.000000 1024.000000"
 preserveAspectRatio="xMidYMid meet">
<metadata>
Created by potrace 1.14, written by Peter Selinger 2001-2017
</metadata>
<g transform="translate(0.000000,1024.000000) scale(0.100000,-0.100000)"
fill="#000000" stroke="none">
<path d="M4820 8009 c-721 -79 -1356 -375 -1841 -859 -226 -225 -374 -426
-544 -741 -33 -60 -124 -281 -153 -369 -312 -948 -132 -1980 478 -2750 118
-149 363 -391 500 -493 302 -225 655 -398 1020 -501 277 -77 405 -96 715 -103
541 -12 978 79 1420 297 571 281 1032 731 1305 1275 189 375 286 730 321 1168
36 452 -75 1004 -290 1444 -283 578 -740 1036 -1333 1334 -262 132 -622 239
-958 284 -138 19 -521 27 -640 14z m353 -246 c-23 -2 -64 -2 -90 0 -26 2 -7 3
42 3 50 0 71 -1 48 -3z m341 -33 c66 -11 127 -22 135 -24 9 -2 30 -7 46 -12
l30 -7 -25 -7 c-23 -7 -23 -8 -3 -9 12 -1 25 4 28 9 10 16 25 12 25 -7 0 -12
3 -14 8 -6 5 8 36 4 117 -18 61 -17 112 -34 113 -40 2 -5 8 -7 12 -4 5 3 25
-4 44 -15 20 -11 38 -20 41 -20 21 1 89 -27 99 -41 6 -10 27 -19 46 -21 22 -2
34 -8 32 -16 -1 -7 3 -12 10 -10 18 3 86 -21 94 -34 4 -5 -4 -5 -17 2 -19 10
-22 10 -12 0 6 -7 22 -14 35 -15 38 -4 39 -5 33 -15 -3 -6 1 -7 9 -4 9 3 16 1
16 -6 0 -6 4 -9 9 -5 5 3 13 0 16 -5 4 -6 17 -16 28 -21 48 -21 102 -58 99
-69 -1 -6 2 -9 8 -5 26 16 363 -256 503 -407 99 -106 246 -297 290 -377 l28
-51 -611 0 -611 0 -53 -25 c-106 -50 -121 -154 -29 -203 28 -16 1426 -15 1416
1 -3 5 -1 7 4 4 10 -6 70 -141 87 -194 l7 -23 -903 0 -904 0 -39 87 c-133 296
-350 461 -640 488 -132 13 -307 -28 -424 -98 -133 -80 -269 -242 -333 -399
l-32 -78 -170 -2 c-94 -1 -243 -1 -331 0 -88 1 -418 2 -732 2 l-573 0 20 49
c52 133 177 359 288 521 92 134 271 342 286 333 5 -3 6 -2 3 4 -16 26 358 327
552 444 82 49 98 56 107 43 10 -13 12 -13 18 1 6 17 26 21 26 4 0 -5 -4 -7
-10 -4 -5 3 -10 2 -10 -3 0 -5 9 -12 20 -15 11 -3 20 -1 20 4 0 5 -9 18 -20
29 -22 22 -4 29 19 8 11 -11 12 -8 7 12 l-7 25 17 -22 c9 -13 23 -23 30 -23
10 0 14 -13 14 -40 0 -33 3 -40 20 -40 16 0 20 -7 20 -35 0 -34 1 -35 38 -35
20 0 44 -5 52 -10 13 -8 12 -10 -5 -10 -13 0 -16 -3 -9 -10 7 -7 19 -7 35 -1
l24 9 -27 12 c-49 23 -35 40 32 40 l60 0 0 40 0 40 40 0 c33 0 40 -3 40 -20 0
-17 7 -20 40 -20 38 0 40 2 40 30 0 28 2 30 40 30 22 0 40 5 40 10 0 6 18 10
40 10 33 0 40 3 40 20 0 18 7 20 79 20 70 0 79 2 84 20 4 15 14 20 37 20 23 0
33 -5 37 -20 5 -18 14 -20 97 -20 107 0 196 -10 196 -21 0 -4 -17 -10 -37 -12
-21 -2 18 -4 87 -4 69 0 106 2 83 4 -24 2 -43 8 -43 12 0 13 109 21 271 21
142 0 149 -1 149 -20 0 -17 7 -20 40 -20 32 0 40 -4 40 -18 0 -10 -9 -28 -20
-39 -20 -22 -20 -22 3 -25 12 -2 75 -2 140 0 108 3 117 5 117 23 0 16 7 19 40
19 l40 0 0 79 0 79 -40 7 c-33 6 -40 11 -41 31 -2 37 -3 42 -12 51 -5 4 -7 1
-5 -7 2 -8 -4 -15 -12 -15 -8 0 -18 -5 -22 -10 -4 -6 -39 -12 -77 -13 -66 -3
-71 -1 -71 18 0 13 -7 20 -20 20 -13 0 -20 7 -20 20 0 14 7 20 22 20 22 0 22
0 3 14 -23 15 -57 17 -66 3 -4 -5 -23 -11 -43 -12 -27 -1 -36 2 -36 14 0 12 2
13 9 3 6 -10 10 -10 20 1 9 12 7 15 -14 19 -14 3 -41 4 -61 3 -19 -1 -30 1
-23 6 8 5 4 9 -12 12 -13 2 -19 5 -14 5 6 1 64 -7 129 -18z m-794 0 c0 -5 -2
-10 -4 -10 -3 0 -8 5 -11 10 -3 6 -1 10 4 10 6 0 11 -4 11 -10z m47 -6 c-3 -3
-12 -4 -19 -1 -8 3 -5 6 6 6 11 1 17 -2 13 -5z m-214 -31 c-7 -2 -19 -2 -25 0
-7 3 -2 5 12 5 14 0 19 -2 13 -5z m-96 -9 c-3 -3 -12 -4 -19 -1 -8 3 -5 6 6 6
11 1 17 -2 13 -5z m-182 -54 c-3 -5 -14 -10 -23 -10 -15 0 -15 2 -2 10 20 13
33 13 25 0z m-45 -10 c0 -5 -5 -10 -11 -10 -5 0 -7 5 -4 10 3 6 8 10 11 10 2
0 4 -4 4 -10z m-35 -10 c-3 -5 -12 -10 -18 -10 -7 0 -6 4 3 10 19 12 23 12 15
0z m-31 -19 c3 -5 0 -9 -7 -8 -6 0 -21 -1 -32 -2 -17 -1 -18 -3 -5 -12 12 -9
10 -10 -9 -5 -14 3 -30 -1 -38 -10 -8 -8 -24 -13 -36 -13 -21 1 -21 2 -2 6 11
3 22 9 25 14 5 8 74 36 92 38 4 1 9 -3 12 -8z m-168 -60 c-6 -9 -46 -22 -46
-15 0 3 10 9 23 14 29 11 29 11 23 1z m-86 -41 c-8 -5 -19 -10 -25 -10 -5 0
-3 5 5 10 8 5 20 10 25 10 6 0 3 -5 -5 -10z m90 -60 c0 -5 -9 -10 -20 -10 -11
0 -20 5 -20 10 0 6 9 10 20 10 11 0 20 -4 20 -10z m1175 -1105 c86 -23 149
-61 215 -132 70 -74 84 -103 278 -553 122 -284 350 -805 572 -1311 155 -353
153 -345 148 -414 -5 -79 -38 -127 -112 -161 -119 -56 -277 -5 -360 114 -15
23 -56 110 -91 194 -35 84 -94 224 -132 310 l-68 158 -549 -3 c-476 -2 -550
-4 -557 -17 -9 -16 -40 -92 -149 -365 -40 -99 -83 -202 -97 -228 -31 -62 -89
-119 -155 -154 -44 -23 -66 -27 -128 -28 -105 0 -181 43 -209 118 -27 71 -19
96 183 569 106 249 235 548 286 663 51 116 160 368 242 560 82 193 168 386
191 430 106 205 295 301 492 250z m-935 -559 c0 -3 -31 -78 -70 -168 l-69
-163 -657 -3 c-711 -2 -705 -3 -799 53 -23 13 -57 41 -75 62 -35 40 -83 136
-95 191 l-7 32 886 0 c487 0 886 -2 886 -4z m3454 -23 c-26 -109 -78 -193
-152 -250 -84 -64 -77 -63 -812 -61 l-664 3 -73 160 c-40 88 -73 163 -73 168
0 4 401 7 890 7 l890 0 -6 -27z m95 -724 c-19 -387 -80 -660 -221 -989 -325
-761 -1019 -1333 -1848 -1523 -256 -59 -356 -71 -625 -71 -308 -1 -466 20
-741 99 -473 136 -885 373 -1205 694 -233 234 -381 450 -525 769 -113 250
-185 496 -219 757 -17 129 -33 495 -21 495 4 0 40 -33 79 -74 57 -58 90 -82
162 -117 50 -24 93 -48 97 -54 4 -5 8 -24 8 -42 0 -18 6 -47 14 -65 8 -18 21
-48 28 -65 7 -18 18 -33 24 -33 6 0 17 -7 25 -16 10 -13 10 -17 -2 -26 -11 -8
-11 -9 3 -5 9 3 19 -1 22 -9 3 -8 0 -14 -7 -14 -6 0 0 -8 13 -17 14 -10 36
-17 50 -16 24 2 24 2 -4 -11 -45 -21 -1 -31 47 -11 13 5 17 2 17 -13 0 -22 41
-34 123 -34 61 0 77 3 71 14 -8 13 13 9 28 -5 7 -8 19 -12 26 -9 7 2 10 -2 6
-12 -5 -13 1 -15 32 -14 64 2 144 -13 137 -26 -4 -7 -2 -7 7 1 13 12 78 7 95
-8 13 -13 27 -11 19 2 -5 8 18 10 80 8 47 -2 86 -2 86 1 0 3 9 6 20 7 22 2 28
20 -75 -227 -107 -255 -117 -288 -122 -386 -7 -113 17 -201 77 -292 67 -100
148 -162 265 -202 73 -25 232 -27 319 -5 148 39 293 148 392 296 50 76 159
301 214 442 l22 57 197 -1 c108 -1 240 -4 294 -8 59 -3 97 -2 97 4 0 20 19
-15 74 -140 139 -315 206 -423 321 -518 81 -67 168 -111 271 -137 91 -24 154
-25 247 -5 273 58 443 340 371 619 -16 63 -87 246 -155 401 -22 50 -39 92 -39
95 0 3 62 6 137 8 98 2 138 0 144 -9 4 -7 14 -9 25 -4 11 5 35 10 54 12 19 2
49 8 66 14 17 5 37 8 45 6 8 -2 10 -2 5 1 -13 7 55 36 82 34 13 -1 22 5 22 13
0 18 26 20 33 3 5 -13 11 17 8 36 -1 5 4 4 13 -3 15 -13 32 1 21 18 -3 5 5 11
17 13 13 2 22 9 20 16 -1 8 2 11 8 7 6 -3 8 -10 5 -15 -3 -4 2 -11 11 -14 28
-11 57 -6 76 11 10 9 18 11 18 6 0 -6 7 -14 16 -17 12 -5 14 -1 9 17 -5 17 -2
16 14 -8 16 -23 21 -26 21 -12 0 10 5 15 10 12 6 -4 10 -3 9 2 -4 16 13 43 24
36 6 -4 8 0 4 10 -3 9 0 18 9 21 8 3 14 12 14 19 0 8 6 27 14 43 8 16 21 60
28 97 l14 69 50 17 c27 9 69 28 94 43 52 31 142 116 167 160 l18 29 6 -43 c4
-24 3 -118 -2 -209z m-3825 119 c-4 -13 -29 -75 -56 -138 -27 -63 -53 -125
-58 -138 -10 -23 -10 -23 -219 -22 -288 2 -369 25 -464 130 -42 46 -87 138
-87 175 0 13 61 15 446 15 l445 0 -7 -22z m3131 13 c13 -21 -39 -127 -88 -178
-103 -110 -186 -131 -515 -132 l-163 -1 -38 83 c-52 112 -101 224 -101 231 0
10 898 7 905 -3z m-4198 -383 c-3 -7 -5 -2 -5 12 0 14 2 19 5 13 2 -7 2 -19 0
-25z m4294 19 c-6 -8 -8 -17 -4 -20 3 -4 1 -7 -5 -7 -15 0 -15 13 0 28 16 16
23 15 9 -1z m44 -39 c-1 -13 -8 -23 -15 -23 -7 0 -14 10 -15 23 -1 14 4 22 15
22 11 0 16 -8 15 -22z m106 8 c15 9 10 -2 -6 -16 -13 -10 -15 -9 -14 11 0 13
3 18 6 11 2 -6 9 -10 14 -6z"/>
<path d="M5788 7653 c7 -3 16 -2 19 1 4 3 -2 6 -13 5 -11 0 -14 -3 -6 -6z"/>
<path d="M5720 7630 c0 -5 9 -10 19 -10 11 0 23 5 26 10 4 6 -5 10 -19 10 -14
0 -26 -4 -26 -10z"/>
<path d="M6116 7541 c-3 -5 1 -11 9 -15 9 -3 15 0 15 9 0 16 -16 20 -24 6z"/>
<path d="M5415 7420 c-18 -19 -17 -20 3 -20 15 0 22 6 22 20 0 11 -2 20 -3 20
-2 0 -12 -9 -22 -20z"/>
<path d="M3774 7398 c3 -13 6 -26 6 -30 0 -14 18 -8 24 8 7 17 -9 44 -26 44
-6 0 -8 -10 -4 -22z"/>
<path d="M5360 7361 c0 -6 4 -13 10 -16 6 -3 7 1 4 9 -7 18 -14 21 -14 7z"/>
<path d="M5610 7340 c-18 -12 -2 -12 25 0 13 6 15 9 5 9 -8 0 -22 -4 -30 -9z"/>
<path d="M4650 7320 c-12 -7 -8 -10 15 -10 17 0 37 5 45 10 12 7 8 10 -15 10
-16 0 -37 -5 -45 -10z"/>
<path d="M5625 7320 c-3 -5 1 -10 10 -10 9 0 13 5 10 10 -3 6 -8 10 -10 10 -2
0 -7 -4 -10 -10z"/>
<path d="M4160 7296 c0 -12 -10 -34 -23 -48 l-23 -24 23 -17 c28 -22 44 -22
36 1 -7 16 -6 16 11 0 24 -25 36 -22 36 8 0 14 4 23 10 19 6 -3 10 -17 10 -31
0 -13 -4 -24 -10 -24 -5 0 -10 -4 -10 -8 0 -5 14 -9 31 -10 29 -1 31 1 27 29
-3 18 0 28 7 27 6 -2 12 2 13 7 2 10 -2 11 -38 14 -16 1 -20 8 -20 41 l0 40
-40 0 c-35 0 -40 -3 -40 -24z m-10 -76 c0 -5 -2 -10 -4 -10 -3 0 -8 5 -11 10
-3 6 -1 10 4 10 6 0 11 -4 11 -10z"/>
<path d="M3829 7283 c19 -4 21 -7 10 -14 -11 -7 -11 -9 -1 -9 19 0 4 -20 -16
-20 -9 0 -33 -14 -52 -31 -32 -28 -33 -29 -5 -12 17 9 32 20 35 23 15 15 112
40 158 40 28 0 52 4 52 9 0 5 -21 9 -46 9 -25 0 -48 3 -51 6 -3 3 -14 1 -24
-4 -12 -7 -20 -7 -24 0 -3 5 -18 9 -33 9 -26 -2 -26 -2 -3 -6z"/>
<path d="M4070 7246 c0 -2 7 -7 16 -10 8 -3 12 -2 9 4 -6 10 -25 14 -25 6z"/>
<path d="M4371 7239 c-1 -19 -27 -32 -43 -23 -6 4 -9 1 -6 -7 6 -16 39 -13 50
4 5 8 8 4 9 -8 0 -15 2 -16 6 -5 3 8 10 18 16 21 5 4 5 9 -2 13 -6 4 -11 1
-12 -6 0 -7 -4 -4 -9 7 -7 16 -9 16 -9 4z"/>
<path d="M5806 7222 c-2 -4 4 -8 14 -8 10 0 16 4 14 8 -3 4 -9 8 -14 8 -5 0
-11 -4 -14 -8z"/>
<path d="M3701 7146 c-13 -14 -22 -29 -20 -34 2 -5 14 6 26 24 26 40 25 43 -6
10z"/>
<path d="M4320 7160 c0 -5 5 -10 10 -10 6 0 10 5 10 10 0 6 -4 10 -10 10 -5 0
-10 -4 -10 -10z"/>
<path d="M4225 7110 c14 -22 25 -45 25 -51 0 -7 3 -9 7 -6 9 9 -27 85 -43 91
-8 3 -4 -11 11 -34z"/>
<path d="M4332 7120 c2 -8 13 -15 23 -15 10 0 20 7 22 15 4 13 3 13 -5 1 -9
-13 -13 -13 -28 0 -15 12 -17 12 -12 -1z"/>
<path d="M5638 7103 c12 -2 30 -2 40 0 9 3 -1 5 -23 4 -22 0 -30 -2 -17 -4z"/>
<path d="M4315 7090 c3 -5 8 -10 11 -10 2 0 4 5 4 10 0 6 -5 10 -11 10 -5 0
-7 -4 -4 -10z"/>
<path d="M5733 7070 c37 -32 47 -36 47 -20 0 6 -5 10 -10 10 -6 0 -20 9 -32
20 -12 11 -26 20 -30 20 -5 0 7 -13 25 -30z"/>
<path d="M5551 7058 c-14 -23 -14 -23 8 -4 22 20 25 26 13 26 -4 0 -13 -10
-21 -22z"/>
<path d="M6609 7063 c-13 -15 -12 -15 9 -4 23 12 28 21 13 21 -5 0 -15 -7 -22
-17z"/>
<path d="M3643 7052 c1 -14 5 -18 11 -12 7 7 6 14 -1 21 -9 9 -12 7 -10 -9z"/>
<path d="M4338 7043 c7 -3 16 -2 19 1 4 3 -2 6 -13 5 -11 0 -14 -3 -6 -6z"/>
<path d="M5524 7015 c-3 -8 -4 -20 -2 -27 3 -7 7 -1 10 15 6 29 1 36 -8 12z"/>
<path d="M5473 6993 c9 -2 23 -2 30 0 6 3 -1 5 -18 5 -16 0 -22 -2 -12 -5z"/>
<path d="M5788 6993 c6 -2 18 -2 25 0 6 3 1 5 -13 5 -14 0 -19 -2 -12 -5z"/>
<path d="M5850 6976 c0 -2 8 -10 18 -17 15 -13 16 -12 3 4 -13 16 -21 21 -21
13z"/>
<path d="M5379 6943 c-13 -16 -12 -17 4 -4 9 7 17 15 17 17 0 8 -8 3 -21 -13z"/>
<path d="M5036 5788 c-93 -209 -339 -797 -351 -835 l-6 -23 395 0 c221 0 397
4 400 9 6 9 -51 149 -232 571 -127 298 -148 340 -166 340 -7 0 -25 -28 -40
-62z m84 -610 c0 -5 -20 -8 -45 -8 -49 0 -48 -8 -14 78 l11 27 23 -45 c13 -25
24 -48 25 -52z"/>
<path d="M7188 4693 c12 -2 32 -2 45 0 12 2 2 4 -23 4 -25 0 -35 -2 -22 -4z"/>
<path d="M7285 4670 c-3 -6 1 -7 9 -4 18 7 21 14 7 14 -6 0 -13 -4 -16 -10z"/>
<path d="M2910 4636 c0 -2 8 -10 18 -17 15 -13 16 -12 3 4 -13 16 -21 21 -21
13z"/>
<path d="M7170 4626 c0 -2 7 -7 16 -10 8 -3 12 -2 9 4 -6 10 -25 14 -25 6z"/>
<path d="M2991 4594 c0 -11 3 -14 6 -6 3 7 2 16 -1 19 -3 4 -6 -2 -5 -13z"/>
<path d="M7033 4554 c4 -4 -1 -17 -10 -28 l-18 -21 25 20 c14 11 26 20 28 21
2 1 -5 5 -15 8 -9 4 -14 4 -10 0z"/>
<path d="M3130 4466 c0 -2 7 -7 16 -10 8 -3 12 -2 9 4 -6 10 -25 14 -25 6z"/>
<path d="M4410 2040 c-311 -16 -519 -52 -544 -93 -45 -74 252 -98 1238 -97
713 0 1091 16 1181 50 54 21 37 68 -33 88 -47 13 -155 29 -302 42 -142 14
-1328 21 -1540 10z"/>
</g>
</svg>
